<?xml version="1.0" standalone="no"?><!DOCTYPE svg PUBLIC "-//W3C//DTD SVG 1.1//EN" "http://www.w3.org/Graphics/SVG/1.1/DTD/svg11.dtd"><svg t="1747123798917" class="icon" viewBox="0 0 1024 1024" version="1.1" xmlns="http://www.w3.org/2000/svg" p-id="4627" xmlns:xlink="http://www.w3.org/1999/xlink" width="200" height="200"><path d="M511.872 256.512s-71.776 118.944-105.856 176.768c-6.624 2.464-7.328 1.76-14.56 8.832-17.504-20.064-38.272-1.76-43.872 9.376-2.432-24.16-6.432-24.192-11.904-29.6 3.168-21.152 13.472-55.68-10.272-80.384-45.984-31.008-99.232 44.8-128.896 84.576l-16 26.528c-65.952-1.376-117.888 0.352-180.512-0.896 76.384 28.576 79.52 29.28 171.776 64.256 0 2.816 6.88 15.872 14.496 23.552 6.272 6.4 13.152 9.984 16.608 12.128-4.512 2.304-13.664 5.888-16.416 11.008-12.448 23.296 5.92 28.672 17.824 47.232 13.44 24.224 16.288 40.288 48.032 26.656 10.848-4.704 23.968-6.304 32.352-8.96-29.568 46.688-37.12 59.392-88.864 139.68l0.512 0.16c206.944-80.768 212.224-82.848 314.592-123.296 147.104 57.088 155.552 61.792 317.088 123.36-22.56-35.232-37.984-57.312-54.368-85.12 6.432-0.544 20.608-1.952 33.152-9.952 9.088-5.76 19.744-12.288 29.344-24.48 18.912-24.096 23.52-54.496 16.64-92.416-3.328-18.048-10.016-35.584-9.088-36.256 87.936-33.184 98.304-36.768 180.32-67.712-98.56 1.44-103.328 0.416-195.872 0.672-1.536-17.664-10.4-26.752-37.632-25.856-10.144 1.664-16.608 5.12-21.344 18.976-15.232-28.032-36.256-19.808-45.216-5.984-11.744-12.032-39.136-16.096-52.896-7.264-10.144-4.768-21.92-4.768-32.288 7.552-7.456-6.24-9.824-8.032-26.208-14.592-37.792-63.872-69.216-114.848-100.64-168.576z m0.512 34.208c14.944 22.816 66.208 111.36 78.88 131.168-14.368 0.992-28.512 8.608-39.168 23.968-9.248-9.568-20.064-18.976-39.136-19.744-23.2-3.968-35.584 6.304-51.2 24.224-4.608-15.584-22.624-19.2-38.24-11.936 13.952-22.144 79.872-133.216 88.832-147.68z m-194.528 98.752c-2.144 61.184-45.568 115.712-76.704 95.776-23.52-19.168 6.368-67.584 25.184-84.704-1.408 13.088 10.496 21.248 0.992 32.864-19.04 23.168-11.52 39.936-3.328 42.496 21.888 6.912 42.848-52.352 42.848-93.92 0-26.656-15.616-26.144-46.336 5.792-41.952 43.616-64.544 85.856-49.504 114.784 8.416 16.224 20.704 27.776 40.928 25.344 39.456-4.704 63.264-53.504 65.824-84.832 6.304-0.128 4.64 0.416 6.304-0.864 0 5.504 7.552 32.224 13.536 49.76 7.808 29.952 41.12 90.016-58.4 113.408-18.784 4.704-26.208 6.304-44.8 13.664-9.088-18.912-11.232-24.96-29.728-43.232 25.088-8.736 25.312-7.904 41.472-13.536 62.592-21.76 81.408-40.416 79.232-66.976 0 0 0.768-13.664-7.904-25.088a110.752 110.752 0 0 1-12.768 27.968l0.256-0.448c-18.656 29.024-55.296 46.976-87.904 35.552-17.792-6.24-25.44-19.872-25.44-43.296 0-29.984 68.32-116.704 101.856-131.424 23.68-7.04 24.704 12.512 24.416 30.88z m277.44 55.456c11.104 0.256 23.168 5.664 31.36 14.496 25.344 27.296 22.56 60.448 6.944 81.28-18.56 24.8-65.376 13.824-76.416-20.832-5.12-16.128 4.064-55.968 20.256-69.28a26.688 26.688 0 0 1 16.544-5.696l1.376 0.032h-0.064z m-90.176 2.816c1.792 0.064 3.52 0.32 5.152 0.768l-0.16-0.032c21.472 1.28 26.016 13.344 29.92 23.904 9.856 26.72 7.392 51.712-12.832 72.16-30.336 30.688-65.696 17.12-65.536-24.192 0.608-29.44 18.912-73.184 43.488-72.576z m79.712 1.632c-16.352 12.256-18.432 43.648-3.424 55.296 5.888 5.536 9.184 9.376 26.144 10.912 11.648 1.024 30.048-10.784 30.944-22.496 0.416-5.344-0.544-14.208-13.312-28.576-10.752-12.064-24.704-14.88-28.192-12.8-11.296 6.656 0.896 11.936 5.344 16.352 6.912 6.944 8.544 9.984 5.344 12.032a19.04 19.04 0 0 1-16 2.4l0.128 0.032c-4.48-2.08-19.456-10.496-6.944-33.152z m160.384 0.128c7.136 11.104 9.184 13.472 17.152 41.184 10.24 35.744 23.296 49.632 34.816 43.104 31.584-17.824 6.304-62.976-4.832-84.224 7.136-0.096 5.728 0.288 12.192 0.224 5.12 20.096 3.68 16.512 17.376 77.344 16.416 72.8 18.848 92.16-22.528 124.832-19.04 15.008-47.072 15.776-71.136 14.496l-27.136-4.064c18.688-12.256 23.264-23.776 23.136-47.616 54.528 22.816 83.584 5.632 95.136-22.432 5.632-13.536 3.68-31.36-1.696-62.752 0.352 25.6-0.224 30.304-3.584 42.976-6.752 25.376-23.328 32.416-34.656 14.496-4.352-6.944-14.72-29.952-17.92-54.688s-5.632-59.52-21.344-74.08c1.696-3.424 3.488-7.264 4.992-8.8z m-53.216 0.416c11.008 2.912 24.416 8.704 31.584 22.176 9.984 18.592 16.544 28.512 16.032 61.728-0.608 35.488-14.496 45.024-23.776 46.336-11.872 1.696-32.512 1.44-44.768-68.192-4.064-23.072-11.424-45.056-19.2-52.224 3.84-4.704 4.128-4.096 7.04-8.704 3.872 4.256 7.264 11.52 12.704 33.152 8.608 34.464 16.512 41.6 31.776 43.52 23.808 3.072 33.184-33.28 13.568-59.36-4.256-5.728-15.584-13.088-21.472-10.08 0.352 10.08 4.832 6.912 4.864 13.568-1.12 7.904-2.272 9.344-4.832 13.664-6.048-2.4-8.96-3.328-14.24-12.416-6.688-13.216-2.336-25.6 10.656-23.2z m-196.128 3.232c-11.232 7.904-25.344 34.144-12.96 57.6 6.112 8.736 12.672 15.872 27.232 12.8 10.464-2.176 28.64-14.496 31.136-31.968 2.208-14.944-19.456-43.872-31.488-37.12-13.952 7.808-5.472 13.408 3.168 21.792 7.904 7.68 2.208 12.32-3.296 14.592-11.008 4.512-17.184 0.128-19.936-8.672-2.784-8.736-0.416-16.224 6.144-29.056z m-122.336 2.752c2.4 7.328 4.256 17.152 9.312 26.624 1.184 0.992 5.632 0 11.488-6.688 3.68-4.256 7.904-10.144 15.232-19.744 4.448 4.064 4.832 7.072 6.048 9.344 3.104 5.536 9.6 5.12 11.648 4.512 7.168-7.136 8.32-11.744 13.056-12.384 0.416 9.216 0.896 14.944-10.976 28.896a22.72 22.72 0 0 1-21.504 7.328l0.16 0.032c-5.12-1.44-8.48-4.608-16.608-8.736-11.008 1.696-8.096 13.44-6.112 23.296 5.12 26.08 21.344 36.48 35.488 28.8 4.96-2.656 3.84-2.656 13.312-6.528-1.632 16.544-2.56 19.744 0.416 38.24-23.072 12.832-41.888 10.656-47.008-21.6-3.872-26.976-11.136-59.744-17.696-66.4-6.176-6.272-8.736-8.32-8.736-8.32z m-303.52 3.488c32.128 0.416 68.352 0.416 106.912 0.736-5.536 13.568-7.456 23.04-8.224 36.448-18.016-6.944-80.096-29.184-98.688-37.152z m884.192 0.416c-42.528 15.328-73.184 27.168-114.208 42.848-4.48-19.2-5.28-25.088-9.344-42.4 68.32-0.224 69.472-0.096 123.552-0.416z m-297.728 87.04c4.48 18.336 10.784 27.36 10.784 27.36 8.608 14.848 19.36 23.264 35.84 27.52 3.616 5.792 4.896 6.944 6.304 10.08 1.568 19.488 0.416 21.92-14.688 33.024-8.928 8.704-9.312 21.216-0.128 32.8 9.856 9.376 20.224 12.704 58.656 2.72 7.424 12.8 17.824 27.872 33.12 51.936-51.456-19.424-122.368-47.072-274.336-106.24 0 0-177.888 69.12-273.248 106.272 39.904-62.88 43.168-68.224 71.552-112.224 9.6-3.808 6.368-2.272 14.88-6.624 19.584-10.464 35.296-26.016 43.872-48.864 15.712 35.424 33.248 39.456 69.792 27.936 7.552-3.488 16.224-8.544 18.08-22.112 19.616 17.632 61.088 20.896 91.392-16.288 26.112 30.592 85.376 33.504 108.064-7.328z m92.032 36.928s1.696 5.504 2.72 7.2c-4.32 0.128-9.088 0-9.088 0 2.4-2.112 4.48-4.48 6.272-7.072l0.096-0.128z" fill="#4298B8" p-id="4628"></path></svg>