<?xml version="1.0" standalone="no"?><!DOCTYPE svg PUBLIC "-//W3C//DTD SVG 1.1//EN" "http://www.w3.org/Graphics/SVG/1.1/DTD/svg11.dtd"><svg t="1747123824444" class="icon" viewBox="0 0 1024 1024" version="1.1" xmlns="http://www.w3.org/2000/svg" p-id="6633" xmlns:xlink="http://www.w3.org/1999/xlink" width="200" height="200"><path d="M248.87244975 168.79015184h154.44443167v434.73247433c0 194.48558062-91.52262617 263.12755025-245.96705786 263.12755027-34.32098481 0-85.80246203-5.72016414-114.4032827-17.16049242l17.16049242-125.843611c22.88065653 11.44032827 51.48147723 17.16049241 80.08229789 17.16049239 62.9218055 0 108.68311858-28.60082068 108.68311858-137.28393924V168.79015184z m291.72837093 526.25510052c40.04114894 22.88065653 108.68311858 45.76131308 171.60492408 45.76131305 74.36213377 0 108.68311858-28.60082068 108.68311857-74.36213374s-34.32098481-68.64196964-114.40328271-97.2427903c-114.40328272-40.04114894-188.76541647-102.96295444-188.76541648-205.92590889 0-120.12344685 97.24279029-205.92590889 263.12755024-205.92590892 80.0822979 0 137.28393923 17.16049241 177.32508821 34.32098485l-34.32098482 125.84361097c-28.60082068-11.44032827-74.36213377-34.32098481-143.00410339-34.32098479s-102.96295444 28.60082068-102.96295444 68.64196959c0 45.76131308 40.04114894 62.9218055 125.84361096 97.24279032 120.12344685 45.76131308 177.32508819 108.68311858 177.32508824 205.9259089 0 114.40328272-91.52262617 211.64607302-280.28804267 211.64607304-80.0822979 0-154.44443167-22.88065653-194.48558061-40.04114897l34.32098482-131.56377511z" fill="#F1DD3F" p-id="6634"></path></svg>