<?xml version="1.0" standalone="no"?><!DOCTYPE svg PUBLIC "-//W3C//DTD SVG 1.1//EN" "http://www.w3.org/Graphics/SVG/1.1/DTD/svg11.dtd"><svg t="1745976042597" class="icon" viewBox="0 0 1024 1024" version="1.1" xmlns="http://www.w3.org/2000/svg" p-id="3445" xmlns:xlink="http://www.w3.org/1999/xlink" width="200" height="200"><path d="M931.1 523.4l-143.8-41.1v-224c0-45.9-20.1-89.5-54.9-119.4L614.5 37.8C585.1 12.6 548.7 0 512.2 0c-36.4 0-72.9 12.6-102.3 37.8L292 138.9c-34.8 29.9-54.9 73.5-54.9 119.4v223.9L92.9 523.4c-33.7 9.6-57 40.5-57 75.6v58.6c0 86.8 70.4 157.2 157.2 157.2h637.8c86.8 0 157.2-70.4 157.2-157.2V599c0-35.1-23.2-66-57-75.6zM236.4 740.2H193c-45.6 0-82.7-37.1-82.7-82.7V599c0-1.8 1.2-3.4 2.9-3.9l123.1-35.2v180.3z m476.4 0H311.7v-482c0-24.2 10.5-47 28.9-62.8L458.4 94.5c15-12.8 34.1-19.9 53.8-19.9 19.7 0 38.8 7.1 53.8 19.9l117.9 101.1c18.3 15.7 28.9 38.6 28.9 62.8v481.8z m200.8-82.6c0 45.6-37.1 82.7-82.7 82.7h-43.4V559.9l123.1 35.2c1.7 0.5 2.9 2.1 2.9 3.9v58.6zM335.4 866.8c-21.7 0-39.3 17.6-39.3 39.3v39.3c0 21.7 17.6 39.3 39.3 39.3 21.7 0 39.3-17.6 39.3-39.3v-39.3c0-21.7-17.6-39.3-39.3-39.3zM689.1 866.8c-21.7 0-39.3 17.6-39.3 39.3v39.3c0 21.7 17.6 39.3 39.3 39.3 21.7 0 39.3-17.6 39.3-39.3v-39.3c0-21.7-17.6-39.3-39.3-39.3zM512.2 866.8c-21.7 0-39.3 17.6-39.3 39.3v78.6c0 21.7 17.6 39.3 39.3 39.3 21.7 0 39.3-17.6 39.3-39.3v-78.6c0-21.7-17.6-39.3-39.3-39.3z" p-id="3446"></path><path d="M512.2 243.1c-33.4 0-66.8 12.7-92.3 38.2-51 51-51 133.6 0 184.6 25.5 25.5 58.9 38.2 92.3 38.2s66.8-12.7 92.3-38.2c51-51 51-133.6 0-184.6-25.5-25.4-58.9-38.2-92.3-38.2z m36.7 167.2c-9.8 9.8-22.8 15.2-36.7 15.2-13.9 0-26.9-5.4-36.7-15.2-20.2-20.2-20.2-53.2 0-73.4 9.8-9.8 22.8-15.2 36.7-15.2 13.9 0 26.9 5.4 36.7 15.2 20.3 20.3 20.3 53.2 0 73.4z" p-id="3447"></path></svg>