<?xml version="1.0" standalone="no"?><!DOCTYPE svg PUBLIC "-//W3C//DTD SVG 1.1//EN" "http://www.w3.org/Graphics/SVG/1.1/DTD/svg11.dtd"><svg t="1745975944627" class="icon" viewBox="0 0 1024 1024" version="1.1" xmlns="http://www.w3.org/2000/svg" p-id="5931" xmlns:xlink="http://www.w3.org/1999/xlink" width="200" height="200"><path d="M619.306667 921.813333l-87.466667-50.506666a5.333333 5.333333 0 0 0-3.093333-0.693334l-4.426667 0.32A354.666667 354.666667 0 0 1 352 197.92a349.546667 349.546667 0 0 1 41.28-17.013333 5.333333 5.333333 0 0 0 0.853333-9.653334l-160-92.48a5.333333 5.333333 0 0 0-8 4.64v73.866667a5.333333 5.333333 0 0 0 2.666667 4.586667l13.706667 7.946666a5.333333 5.333333 0 0 1 0.586666 8.8 429.386667 429.386667 0 0 0 375.146667 752.96 5.333333 5.333333 0 0 0 1.066667-9.76zM945.6 489.386667A429.6 429.6 0 0 0 406.026667 92.426667a5.333333 5.333333 0 0 0-1.333334 9.76l87.466667 50.506666a5.333333 5.333333 0 0 0 3.093333 0.693334l4.426667-0.32A354.666667 354.666667 0 0 1 672 826.08a349.546667 349.546667 0 0 1-41.28 17.013333 5.333333 5.333333 0 0 0-0.853333 9.653334l160 92.48a5.333333 5.333333 0 0 0 8-4.64v-73.866667a5.333333 5.333333 0 0 0-2.666667-4.586667l-13.706667-7.946666a5.333333 5.333333 0 0 1-0.586666-8.8 428.373333 428.373333 0 0 0 164.693333-356z" p-id="5932"></path></svg>