<?xml version="1.0" standalone="no"?><!DOCTYPE svg PUBLIC "-//W3C//DTD SVG 1.1//EN" "http://www.w3.org/Graphics/SVG/1.1/DTD/svg11.dtd"><svg t="1747123931905" class="icon" viewBox="0 0 1024 1024" version="1.1" xmlns="http://www.w3.org/2000/svg" p-id="16238" xmlns:xlink="http://www.w3.org/1999/xlink" width="200" height="200"><path d="M860 3.552c129.408 22.4 166.112 110.848 163.36 203.52L1024 205.76l-58.24 763.232-756.448 51.872C146.464 1018.208 6.4 1012.448 0 816.608l70.176-128 141.728 331.008 119.68-390.144-1.28 0.288 0.672-1.28 394.88 126.112-59.552-231.712-42.24-166.4 376.32-24.288-26.24-21.76-270.176-220.256L860.096 3.104l-0.128 0.416zM0 814.464zM218.88 216.448c151.936-150.752 348.032-239.84 423.328-163.84 75.168 75.808-4.48 260.48-156.704 411.136-152.032 150.688-345.728 244.64-420.864 168.832-75.36-75.808 1.92-265.248 154.112-416l0.128-0.128z" fill="#CC342D" p-id="16239"></path></svg>