<?xml version="1.0" standalone="no"?><!DOCTYPE svg PUBLIC "-//W3C//DTD SVG 1.1//EN" "http://www.w3.org/Graphics/SVG/1.1/DTD/svg11.dtd"><svg t="1746006291136" class="icon" viewBox="0 0 1024 1024" version="1.1" xmlns="http://www.w3.org/2000/svg" p-id="7955" xmlns:xlink="http://www.w3.org/1999/xlink" width="200" height="200"><path d="M117.034667 183.893333a42.666667 42.666667 0 0 1 41.258666-44.074666l260.565334-8.362667a155.562667 155.562667 0 0 1 115.029333 45.525333l145.194667 145.194667a212.053333 212.053333 0 0 1 50.389333 219.477333l154.026667 154.026667a42.666667 42.666667 0 1 1-60.330667 60.330667l-139.093333-139.136-4.992 5.12-79.872 79.872c-1.664 1.706667-3.370667 3.328-5.12 4.949333l133.845333 133.802667a42.666667 42.666667 0 1 1-60.373333 60.330666l-148.693334-148.693333a212.053333 212.053333 0 0 1-219.477333-50.389333l-88.021333-88.021334a212.053333 212.053333 0 0 1-61.994667-156.672l0.554667-17.322666a42.666667 42.666667 0 0 1 85.290666 2.730666l-0.554666 17.322667a126.72 126.72 0 0 0 37.034666 93.610667l88.021334 87.978666a126.72 126.72 0 0 0 179.2 0l79.786666-79.786666a126.72 126.72 0 0 0 0-179.2L473.6 237.312a70.229333 70.229333 0 0 0-51.925333-20.565333l-260.608 8.362666a42.666667 42.666667 0 0 1-43.989334-41.258666z" p-id="7956"></path></svg>